# File created by Blade
# Date/Time:  Mon Sep 22 15:39:46 2014
# Frame Rate: 120.000 fps
#------------------------------------------------------
:FULLY-SPECIFIED
:DEGREES
1394
root 1.897571 37.023329 2.580969 -0.711265 -7.755893 0.840041
RightUpLeg 8.459285 -3.955646 -2.526979
RightLeg -5.422297 -0.000000 0.000000
RightFoot -11.561368 -12.076051 15.850767
RightToeBase 15.981330 -0.000000 -0.000000
LeftUpLeg 8.506716 4.939614 2.877188
LeftLeg -3.023854 -0.000000 0.000000
LeftFoot -10.813388 15.015356 -18.151956
LeftToeBase 9.531880 -0.000000 -0.000000
Spine 0.015428 4.340787 -3.964606
RightShoulder 6.290027 -0.225680 -22.922290
RightArm 60.881039 56.135126 93.344740
RightForeArm 71.059785 -0.000000 109.621852
RightHand 15.586477 -0.000000 -7.165774
RightHandThumb1 -24.326973 -0.000000 -32.862282
LeftShoulder -8.253078 37.583774 0.078064
LeftArm 43.858229 18.194757 -59.253033
LeftForeArm 23.215667 -0.000000 19.241421
LeftHand -13.934836 -0.000000 -8.792625
LeftHandThumb1 -26.253704 0.000000 33.147579
Head -1.934658 -22.697353 8.230272
1395
root 1.891416 37.023158 2.579803 -0.716791 -7.856218 0.825325
RightUpLeg 8.459544 -3.901588 -2.505997
RightLeg -5.441259 -0.000000 0.000000
RightFoot -11.531800 -12.039001 15.824527
RightToeBase 16.033503 -0.000000 -0.000000
LeftUpLeg 8.531800 5.024723 2.900698
LeftLeg -3.027467 -0.000000 0.000000
LeftFoot -10.823933 15.034744 -18.156568
LeftToeBase 9.505325 -0.000000 -0.000000
Spine 0.035658 4.393376 -3.954962
RightShoulder 6.385960 -0.349096 -22.840368
RightArm 61.180011 56.338123 93.680227
RightForeArm 70.927052 -0.000000 109.554917
RightHand 15.731006 -0.000000 -7.144242
RightHandThumb1 -24.326973 -0.000000 -32.862282
LeftShoulder -8.216103 37.524068 0.113668
LeftArm 43.951179 18.226047 -59.210197
LeftForeArm 23.180117 -0.000000 19.269551
LeftHand -14.107529 -0.000000 -8.201473
LeftHandThumb1 -26.253704 0.000000 33.147579
Head -1.923384 -22.794382 8.274060
1396
root 1.887753 37.022910 2.577124 -0.731191 -7.924129 0.810157
RightUpLeg 8.472417 -3.861147 -2.489126
RightLeg -5.461802 -0.000000 0.000000
RightFoot -11.507192 -12.013334 15.810753
RightToeBase 16.060786 -0.000000 -0.000000
LeftUpLeg 8.554627 5.059197 2.917518
LeftLeg -3.026861 -0.000000 0.000000
LeftFoot -10.847133 15.086215 -18.139555
LeftToeBase 9.560141 -0.000000 -0.000000
Spine 0.083637 4.440575 -3.930304
RightShoulder 6.444715 -0.354235 -22.792216
RightArm 61.250369 56.516786 93.831307
RightForeArm 70.675250 0.000000 109.505544
RightHand 15.742393 -0.000000 -7.619508
RightHandThumb1 -24.326973 -0.000000 -32.862282
LeftShoulder -8.146589 37.397694 0.150925
LeftArm 43.962477 18.220358 -59.213618
LeftForeArm 23.320835 -0.000000 19.396584
LeftHand -14.249664 -0.000000 -8.326238
LeftHandThumb1 -26.253704 0.000000 33.147579
Head -1.939076 -22.869435 8.282532
1397
root 1.885847 37.022967 2.571662 -0.740633 -7.979560 0.798942
RightUpLeg 8.468245 -3.817687 -2.475086
RightLeg -5.467764 -0.000000 0.000000
RightFoot -11.488146 -11.998847 15.843737
RightToeBase 15.908168 -0.000000 -0.000000
LeftUpLeg 8.557051 5.063851 2.925984
LeftLeg -3.007764 -0.000000 0.000000
LeftFoot -10.886709 15.137876 -18.168799
LeftToeBase 9.554389 -0.000000 -0.000000
Spine 0.136958 4.478887 -3.891085
RightShoulder 6.464176 -0.380965 -22.755459
RightArm 61.415834 56.613942 94.033625
RightForeArm 70.411031 -0.000000 109.441579
RightHand 15.715212 -0.000000 -7.705586
RightHandThumb1 -24.326973 -0.000000 -32.862282
LeftShoulder -8.113112 37.314578 0.145389
LeftArm 44.024139 18.163848 -59.213883
LeftForeArm 23.226969 -0.000000 19.523367
LeftHand -14.172816 -0.000000 -8.362932
LeftHandThumb1 -26.253704 0.000000 33.147579
Head -1.963928 -23.022959 8.288050
1398
root 1.885087 37.022855 2.569318 -0.761372 -8.034758 0.798832
RightUpLeg 8.462013 -3.816472 -2.479935
RightLeg -5.434813 -0.000000 0.000000
RightFoot -11.493477 -11.930828 15.840998
RightToeBase 16.055255 -0.000000 -0.000000
LeftUpLeg 8.579598 5.095240 2.925356
LeftLeg -3.002446 -0.000000 0.000000
LeftFoot -10.895623 15.172004 -18.157144
LeftToeBase 9.562946 -0.000000 -0.000000
Spine 0.194772 4.549850 -3.871008
RightShoulder 6.498102 -0.285790 -22.718445
RightArm 61.232980 56.788559 93.944120
RightForeArm 70.425062 -0.000000 109.390649
RightHand 15.746205 0.000000 -7.702278
RightHandThumb1 -24.326973 -0.000000 -32.862282
LeftShoulder -8.063321 37.223238 0.164249
LeftArm 44.074652 18.131928 -59.231959
LeftForeArm 23.207100 -0.000000 19.670106
LeftHand -14.202464 -0.000000 -8.198727
LeftHandThumb1 -26.253704 0.000000 33.147579
Head -2.000602 -23.164920 8.307333
1399
root 1.883368 37.022562 2.561418 -0.761607 -8.038120 0.794365
RightUpLeg 8.447050 -3.804656 -2.470118
RightLeg -5.428548 -0.000000 0.000000
RightFoot -11.491753 -11.940941 15.828713
RightToeBase 16.046602 -0.000000 -0.000000
LeftUpLeg 8.554236 5.039118 2.925293
LeftLeg -2.972616 -0.000000 0.000000
LeftFoot -10.920529 15.232765 -18.163879
LeftToeBase 9.535540 -0.000000 -0.000000
Spine 0.250310 4.572891 -3.864473
RightShoulder 6.526837 -0.324257 -22.697946
RightArm 61.327347 56.954880 94.081734
RightForeArm 70.635583 0.000000 109.301053
RightHand 15.774111 -0.000000 -7.294254
RightHandThumb1 -24.326973 -0.000000 -32.862282
LeftShoulder -8.042065 37.156516 0.186981
LeftArm 44.183449 18.040551 -59.292281
LeftForeArm 23.154818 -0.000000 19.790409
LeftHand -14.148662 -0.000000 -8.191366
LeftHandThumb1 -26.253704 0.000000 33.147579
Head -2.095120 -23.315302 8.410984
1400
root 1.881033 37.022225 2.559883 -0.766268 -8.082984 0.795132
RightUpLeg 8.452858 -3.756151 -2.463764
RightLeg -5.448123 -0.000000 0.000000
RightFoot -11.461450 -11.963257 15.770824
RightToeBase 16.015849 -0.000000 -0.000000
LeftUpLeg 8.561308 5.064447 2.927687
LeftLeg -2.965141 -0.000000 0.000000
LeftFoot -10.942857 15.237364 -18.199273
LeftToeBase 9.545190 -0.000000 -0.000000
Spine 0.288000 4.633494 -3.855188
RightShoulder 6.562676 -0.269792 -22.653332
RightArm 61.194788 57.105536 93.982717
RightForeArm 70.974521 -0.000000 109.220418
RightHand 15.629825 -0.000000 -7.139423
RightHandThumb1 -24.326973 -0.000000 -32.862282
LeftShoulder -8.038807 37.100207 0.183591
LeftArm 44.237459 17.956149 -59.340621
LeftForeArm 23.098866 -0.000000 20.007295
LeftHand -14.181328 -0.000000 -8.062929
LeftHandThumb1 -26.253704 0.000000 33.147579
Head -2.128036 -23.438443 8.432233
1401
root 1.879076 37.022181 2.557561 -0.773433 -8.101792 0.794283
RightUpLeg 8.461391 -3.695488 -2.457732
RightLeg -5.463077 -0.000000 0.000000
RightFoot -11.464063 -11.978113 15.816932
RightToeBase 15.999638 -0.000000 -0.000000
LeftUpLeg 8.563195 5.073293 2.931927
LeftLeg -2.952528 -0.000000 0.000000
LeftFoot -10.951739 15.250052 -18.188429
LeftToeBase 9.579284 -0.000000 -0.000000
Spine 0.338616 4.675845 -3.847610
RightShoulder 6.562861 -0.237598 -22.614146
RightArm 61.142057 57.201891 93.948138
RightForeArm 71.439067 0.000000 109.128304
RightHand 15.621625 -0.000000 -6.808335
RightHandThumb1 -24.326973 -0.000000 -32.862282
LeftShoulder -8.032819 37.035193 0.183486
LeftArm 44.281259 17.858862 -59.426570
LeftForeArm 22.917430 -0.000000 20.249291
LeftHand -14.151053 -0.000000 -8.098480
LeftHandThumb1 -26.253704 0.000000 33.147579
Head -2.205614 -23.568634 8.511683
1402
root 1.880180 37.022134 2.553912 -0.767848 -8.091159 0.799422
RightUpLeg 8.454752 -3.670380 -2.460830
RightLeg -5.473392 -0.000000 0.000000
RightFoot -11.468982 -12.003159 15.820401
RightToeBase 16.048580 -0.000000 -0.000000
LeftUpLeg 8.544298 5.042049 2.918478
LeftLeg -2.947337 -0.000000 0.000000
LeftFoot -10.954401 15.298591 -18.170034
LeftToeBase 9.582976 -0.000000 -0.000000
Spine 0.379705 4.693623 -3.832777
RightShoulder 6.565158 -0.238311 -22.596134
RightArm 61.160061 57.299157 93.970086
RightForeArm 72.042976 0.000000 109.035472
RightHand 15.598733 -0.000000 -6.205880
RightHandThumb1 -24.326973 -0.000000 -32.862282
LeftShoulder -8.035634 36.981115 0.165533
LeftArm 44.342825 17.744066 -59.498195
LeftForeArm 22.773359 -0.000000 20.490967
LeftHand -14.033934 -0.000000 -8.208043
LeftHandThumb1 -26.253704 0.000000 33.147579
Head -2.279700 -23.686531 8.547718
1403
root 1.881282 37.022084 2.551815 -0.761902 -8.075573 0.813214
RightUpLeg 8.449831 -3.656468 -2.470739
RightLeg -5.480117 -0.000000 0.000000
RightFoot -11.482118 -12.045337 15.808121
RightToeBase 15.934755 -0.000000 -0.000000
LeftUpLeg 8.531889 4.998396 2.898291
LeftLeg -2.949150 -0.000000 0.000000
LeftFoot -10.966277 15.318442 -18.212743
LeftToeBase 9.553129 -0.000000 -0.000000
Spine 0.405939 4.707762 -3.831031
RightShoulder 6.583288 -0.214380 -22.574344
RightArm 61.130382 57.412598 93.953632
RightForeArm 72.334988 -0.000000 108.947285
RightHand 15.495491 -0.000000 -6.187645
RightHandThumb1 -24.326973 -0.000000 -32.862282
LeftShoulder -8.021122 36.929394 0.157051
LeftArm 44.371791 17.663099 -59.561965
LeftForeArm 22.726309 -0.000000 20.768081
LeftHand -14.307181 -0.000000 -7.672954
LeftHandThumb1 -26.253704 0.000000 33.147579
Head -2.325196 -23.863699 8.595228
1404
root 1.880622 37.022360 2.550179 -0.751598 -8.050025 0.815949
RightUpLeg 8.436616 -3.668550 -2.466812
RightLeg -5.474799 -0.000000 0.000000
RightFoot -11.473760 -12.071270 15.766950
RightToeBase 16.033297 -0.000000 -0.000000
LeftUpLeg 8.511373 5.009291 2.897855
LeftLeg -2.941042 -0.000000 0.000000
LeftFoot -10.948813 15.299804 -18.181442
LeftToeBase 9.565907 -0.000000 -0.000000
Spine 0.427496 4.699785 -3.819565
RightShoulder 6.610485 -0.250383 -22.564364
RightArm 61.235862 57.517238 94.063104
RightForeArm 72.673774 -0.000000 108.883031
RightHand 15.520662 0.000000 -5.779760
RightHandThumb1 -24.326973 -0.000000 -32.862282
LeftShoulder -8.038023 36.891825 0.136425
LeftArm 44.396030 17.528782 -59.675354
LeftForeArm 22.514558 0.000000 21.069398
LeftHand -14.317583 -0.000000 -7.487220
LeftHandThumb1 -26.253704 0.000000 33.147579
Head -2.372665 -23.986309 8.632345
